<svg width="21" height="17" viewBox="0 0 21 17" fill="none" xmlns="http://www.w3.org/2000/svg">
<path d="M12.2929 16.7071C12.6834 17.0976 13.3166 17.0976 13.7071 16.7071L20.0711 10.3431C20.4616 9.95262 20.4616 9.31946 20.0711 8.92893C19.6805 8.53841 19.0474 8.53841 18.6569 8.92893L13 14.5858L7.34315 8.92893C6.95262 8.53841 6.31946 8.53841 5.92893 8.92893C5.53841 9.31946 5.53841 9.95262 5.92893 10.3431L12.2929 16.7071ZM0 1V2H9V1V0H0V1ZM13 5H12V16H13H14V5H13ZM9 1V2C10.6569 2 12 3.34315 12 5H13H14C14 2.23858 11.7614 0 9 0V1Z" fill="#F2F2F2"/>
</svg>
