<?xml version="1.0" encoding="UTF-8"?>
<svg id="Capa_1" data-name="Capa 1" xmlns="http://www.w3.org/2000/svg" viewBox="0 0 725 725">
  <defs>
    <style>
      .cls-1 {
        fill: #fff;
      }
    </style>
  </defs>
  <path class="cls-1" d="M398.7,225.31c-4.4-3.83-9.29,6.3-11.25,9.64-12.37,21.12-23.06,46.37-31.96,69.04-6.66,16.96-8.97,20.59-18.32,35.68-10.71,17.3-4.56,23.63-3.19,40.83.41,5.09-.99,10.6-1.05,16.06-.02,2.31,2.18,5.15-1.02,5.05-7.01-.23-18.52-6.59-23.93-11.1-11.14-9.28-30.9-45.21-33.54-59.46-5.51-29.66,3.35-36.26,14.73-60.38,2.74-5.8,4.15-12.26,6.97-18.03,8.89-18.21,34.15-30.49,45.69-48.31,4.81-7.43,6.62-16.11,12.19-23.81,8.01-11.1,19.5-16.65,27.93-26.99,1.57-.6,9.61,2.43,11.73,3.29,8.34,3.37,26.66,11.56,33.65,16.35,3.1,2.12,13.96,14.53,15.3,14.76,6.29-4.31,10.59-10.52,17.05-14.74,5.14-3.35,10.67-5.13,15.98-8.02,3.51-1.91,18.14-11.69,20.62-11.04,4.46,3.3,8.73,7.75,13.4,10.68,7.4,4.64,16.18,6.44,23.22,11.78,7.74,5.87,13.45,15.6,20.61,21.39,9.53,7.71,19.62,10.18,27.89,21.11,3.85,5.09,5.62,11.38,9.61,16.39,6.85,8.6,17.66,17.67,24.95,27.05,3.03,3.9,14.68,19.42,16.2,22.8,2.37,5.25,1.15,9.82,3.32,14.68,1.49,3.36,5.62,6.82,7.7,10.3,8.75,14.59,18.43,60.76,19.79,78.21,1.09,13.92-6.82,27.22-8.86,41.11-1.25,8.54-.52,17.19-2.41,25.59-2.95,13.07-9.27,31.05-13.2,44.8-5.1,17.8-14.59,24.25-23.53,38.47-4.9,7.79-7.16,16.48-13.58,23.42-3.57,3.86-9.3,7.06-12.91,11.09-5.34,5.98-9.18,15.01-15.09,20.91-10.85,10.82-34.1,16.45-48.06,23.94-15.59,8.35-27.01,22.11-44.07,28.93-28.42,11.36-57,20.11-87.72,21.28-43.99,1.68-105.9-2.22-145.9-21.18-4.95-2.35-9.34-6.03-13.95-8.05-5.78-2.54-12.97-3.52-18.95-6.05-11.03-4.65-32.55-24.8-42.26-33.74-1.88-1.73-10.28-9.63-10.99-11.01-.9-1.74-.19-1.9,1.01-2.99,12.09,7.5,25.95,17.23,39.55,21.43,6.76,2.09,13.62,2.27,19.99,4.01,26.35,7.23,33.38,9.52,61.47,10.53,16.21.58,30.61,9.39,46.98,7.98,13.23-1.14,28.77-9.25,41.75-13.25,17.55-5.41,37.71-7.43,53.1-17.9,5.99-4.07,10.72-10.68,17-14,16.55-8.76,27.83-2.18,42.65-19.35,11.77-13.64,16.93-24.42,25.6-39.4,7.06-12.2,18.83-21.11,24.18-33.82,7.42-17.63,11.31-40.67,10.22-59.75-.22-3.78-2.06-8.31-2.06-12.02,0-6.29,2.75-14.26,3.13-20.95.78-13.92-6.17-57.47-12.02-70.07-2.23-4.79-6.55-8.8-9.2-13.8-7.06-13.35-4.12-23.78-9.09-36.91-3.84-10.14-10.05-15.01-15.12-23.88-4.82-8.43-8.54-18.53-11.12-27.88-1.01-1.53-1.71-.59-2.52.5-1.9,2.58-2.51,6.95-4.15,9.85-5.49,9.72-15.96,13.39-23.86,20.14-7.08,6.05-10.45,14.34-17.47,20.27-1.33.11-10.12-7.64-11.49-9.28-5.57-6.68-7.19-15.94-11.59-22.41-3.63-5.33-12.48-12.18-17.5-16.53-1.08-.94-1.46-2.55-2.23-3.22Z"/>
  <path class="cls-1" d="M563.99,148.99c-1.52,1.46-20.91-14.33-24.33-16.16-6.34-3.4-25.33-9.91-32.28-10.72-7.9-.92-16.38.7-24.44-.56-9.88-1.54-17.29-8.09-26.17-10.83-4.61-1.43-8.9-1.09-12.83-2.17-13.18-3.6-22.17-11.38-36.63-4.73-5.38,2.47-12.35,9.79-18.05,10.95-10.81,2.21-20.83-4.84-30.68-3.7-6.79.79-11.89,7.55-18.38,9.64-10.43,3.35-22.12-.18-32.16,6.84-6.81,4.76-9.8,14.66-16.73,19.27-6.62,4.4-16.05,4.74-23.32,7.68-3.8,1.54-7.05,4.35-11.02,5.98-5.24,2.15-11.3,2.96-16.66,5.34-14.72,6.53-10.95,14.33-19.35,24.65-5.54,6.82-14.06,8.63-17.87,17.13-3.5,7.8-.99,15.38-4.91,24.09-2.98,6.61-7.53,8.84-11.03,13.97-9.53,13.98-5.04,32.93-6.18,48.82-1.29,17.99-6.32,33.55-3.73,52.75,1.28,9.51,8.93,16.07,12,26,2.15,6.94,2.76,22.01,4.87,26.13s12.24,10.93,16.3,16.7c4.33,6.15,8.19,18.49,13.53,22.47,3.83,2.86,10.81,4.95,15.35,7.65,6.51,3.86,13.59,11.7,19.99,14.01,12.03,4.35,18.8-2.58,30.21-2.27,13.33.36,19.25,8.46,35.75,4.83,12.54-2.76,15.97-12.69,24.73-20.27,10.44-9.04,24.45-14.36,26.91-30.09.54-3.44-.15-6.38.79-10.21,1.83-7.44,8.86-14.17,10.86-21.14,2.31-8.08,1.35-18.67,2.6-27.4.45-3.14,3.1-16.73,4.37-18.64.97-1.45,1.27-.87,2.52-.57,3.31.8,14.62,6.36,17.67,8.37,12.61,8.28,11.81,19.37,17.92,31.08,3.48,6.67,11.13,13,13.91,19.09,3.62,7.95,5.35,26.84,4.47,35.51-1.75,17.26-16.37,19.78-23.79,32.21-3.6,6.03-8.41,14.97-11.73,21.27-6.24,11.83-5.38,19.37-18.16,26.84-8.57,5-18.13,5.97-27.27,9.73-15.24,6.27-14.22,6.95-31.41,9.59-13.61,2.09-15.14,6.26-25.64,11.36-6.25,3.04-19.69,7.83-26.7,10.3-18.87,6.64-31.12-3.63-49.03-7.52-10.01-2.18-22.3-5.24-32-7-10.81-1.96-20.58-.82-31.24-5.76-10-4.64-9.2-15.07-16.05-20.95-6.48-5.56-20.83-8.59-28.98-13.02-19.24-10.47-15.7-19.27-21.95-37.05-5.25-14.94-13.93-12.96-23.68-22.82-9.03-9.13-8.85-17.53-13.95-27.55-1.71-3.37-6.43-7.4-7.19-10.81-1.69-7.55.32-21.2-.22-29.78-.35-5.5-2.66-9.43-2.04-16.07,1.08-11.61,11.98-16.75,12.94-30.07.43-6.06-2.04-12.34-1.93-17.82.15-7.08,6.25-15.66,6.94-23.16.79-8.57-2.09-16.31-.63-26.61,2.72-19.21,10.31-24.82,17.59-40.41,4.37-9.36,2.54-14.04,12.84-20.16,6.07-3.6,9.62-3.32,14.81-9.19,8.36-9.46,11.53-20.41,16.96-31.04,7.62-14.94,12.69-10.65,23-19,10.01-8.1,11.15-18.25,25.74-23.26,18.75-6.44,37.64-8.77,54.25-21.75,8-6.25,19.42-15.63,29.53-18.47,4.78-1.35,8.91-.93,13.06-1.94,6.74-1.65,16.13-6.23,22.48-6.57,17.14-.93,37.05,5.91,55,.06,8.99-2.93,10.6-6.3,21.97-5.04,10.24,1.13,19.86,9.9,29.27,12.73,9.33,2.8,20.17,1.83,30.23,4.77,7.44,2.18,14.66,6.73,22.04,8.96,10.53,3.19,18.81,2.97,28.99,9.01,6.52,3.87,11.64,10.11,18.05,13.95,9.14,5.49,17.38,5.51,26.38,13.62,3.91,3.52,5.75,7.42,9.02,10.98,1.68,1.83,16.89,15.69,14.51,17.98Z"/>
  <path class="cls-1" d="M603.89,185.88c-6.61,3.2-7.93-4.06-10.89-7.38-4.45-5-13.16-11.54-16.44-16.56-4.09-6.27,2.94-7.83,8.48-2.48,3.08,2.98,15.2,15.31,16.97,18.04,1.58,2.45,2.4,5.48,1.88,8.38Z"/>
  <path class="cls-1" d="M125.7,562.1c3.05-.78,8.2,7.13,10.8,8.88,1-.73,1.97-2.6,3.14-2.83,2.73-.52,16.93,11.49,16.36,14.32-1.06,5.27-13.77-4.52-16.33-5.65-3.67-1.62-7.53-1.81-11.01-3.99s-8.93-9.2-2.97-10.73Z"/>
</svg>